<svg width="47" height="46" viewBox="0 0 47 46" fill="none" xmlns="http://www.w3.org/2000/svg">
<rect x="0.5" width="46" height="46" rx="18" fill="#8E97FD"/>
<path d="M32.8204 19.5059L25.2282 12.8191C24.1436 11.7345 22.3778 11.7345 21.3381 12.7743L13.6563 19.5508C12.9123 20.2947 12.5 21.2897 12.5 22.3474V31.302C12.5 32.7899 13.7101 34 15.198 34H31.3324C32.8114 34 34.0215 32.7899 34.0215 31.302V22.3474C34.0215 21.2897 33.6092 20.2947 32.8204 19.5059ZM32.2288 31.302C32.2288 31.8039 31.8254 32.2073 31.3324 32.2073H25.6495V26.4348C25.6495 25.9149 25.2372 25.5026 24.7173 25.5026H21.8042C21.2932 25.5026 20.872 25.9149 20.872 26.4348V32.2073H15.198C14.6961 32.2073 14.2927 31.8039 14.2927 31.302V22.3474C14.2927 21.7827 14.5258 21.218 14.8843 20.8505L22.5661 14.083C22.7543 13.8948 22.9963 13.7962 23.2473 13.7962C23.5162 13.7962 23.7851 13.9037 24.0002 14.1188L31.5924 20.8146C32.0047 21.2269 32.2288 21.7737 32.2288 22.3474V31.302Z" fill="white"/>
</svg>
