<svg width="31" height="30" viewBox="0 0 31 30" fill="none" xmlns="http://www.w3.org/2000/svg">
<path d="M15.5057 30.0002C15.5057 30.0002 15.5019 30.0002 15.4933 30.0002C14.9922 30.0002 -0.856173 29.9194 0.593909 20.9428C0.603399 20.8803 0.613838 20.8179 0.625226 20.7545C0.647053 20.6353 0.672677 20.5142 0.701147 20.3912C0.75524 20.1587 0.810283 19.9271 0.866274 19.6946C0.902336 19.5466 0.938399 19.3986 0.97541 19.2516C1.00957 19.1152 1.04374 18.9787 1.07885 18.8413C1.11207 18.7116 1.14528 18.5819 1.17945 18.4531C1.1804 18.4483 1.18229 18.4445 1.18324 18.4397C1.24683 18.1975 1.31231 17.9554 1.38064 17.7142C1.38918 17.6815 1.39772 17.6489 1.40721 17.6162C1.90164 15.8491 2.48718 14.108 3.20463 12.4226C3.98756 10.5863 4.97357 8.93549 6.11903 7.3087C7.78358 4.94587 9.75088 2.36011 12.2534 0.856313C13.2195 0.274973 14.3678 -0.0901654 15.5 0.0193762C16.6321 -0.0901654 17.7795 0.274973 18.7456 0.856313C21.2481 2.36011 23.2154 4.94587 24.8799 7.3087C26.0254 8.93549 27.0114 10.5863 27.7934 12.4226C28.6817 14.5048 29.3659 16.6726 29.9268 18.8701C29.9856 19.0979 30.0425 19.3266 30.0985 19.5553C30.1004 19.5601 30.1014 19.5649 30.1023 19.5697C30.1346 19.7023 30.1669 19.8349 30.1982 19.9675C30.2124 20.028 30.2276 20.0876 30.2409 20.1481C30.2608 20.2288 30.2788 20.3105 30.2978 20.3912C32.4976 29.9166 16.0172 30.0002 15.5057 30.0002Z" fill="url(#paint0_radial_1_4)"/>
<circle cx="19.5" cy="8.00049" r="2" fill="#D7D9FF"/>
<path d="M15.5054 30.0002C15.5054 30.0002 15.5016 30.0002 15.4931 30.0002C14.992 30.0002 -0.856418 29.9195 0.593665 20.9428C0.603155 20.8804 0.613594 20.8179 0.624982 20.7545C0.646809 20.6354 0.672432 20.5143 0.700903 20.3913C0.754996 20.1588 0.810038 19.9272 0.86603 19.6946C0.902092 19.5467 0.938154 19.3987 0.975166 19.2517C1.00933 19.1152 1.04349 18.9788 1.07861 18.8414C1.11182 18.7117 1.14504 18.5819 1.1792 18.4532C1.18015 18.4484 1.18205 18.4445 1.183 18.4397C1.24658 18.1976 1.31206 17.9554 1.38039 17.7142C1.4155 17.6873 1.45157 17.6604 1.48668 17.6335C3.15693 16.369 5.10714 14.649 5.6234 13.1846C7.2016 8.71069 10.3381 11.2619 11.6126 12.5648C12.0178 12.979 12.6498 13.0616 13.1405 12.757C13.8019 12.3457 14.7215 11.552 15.6297 10.0367C16.3073 8.90672 17.7147 8.4599 18.8905 9.03355C20.7914 9.96177 23.9952 12.3371 29.2537 18.0852C29.4966 18.3513 29.7215 18.6127 29.9265 18.8702C29.9854 19.0979 30.0423 19.3266 30.0983 19.5553C30.1002 19.5601 30.1011 19.5649 30.1021 19.5697C30.1343 19.7023 30.1666 19.8349 30.1979 19.9675C30.2122 20.0281 30.2274 20.0876 30.2406 20.1482C30.2606 20.2289 30.2786 20.3106 30.2976 20.3913C32.4974 29.9166 16.0169 30.0002 15.5054 30.0002Z" fill="#8589EB"/>
<path opacity="0.15" d="M15.5054 30.0004C15.5054 30.0004 15.5016 30.0004 15.4931 30.0004C14.992 30.0004 -0.856418 29.9197 0.593665 20.943C0.603155 20.8806 0.613594 20.8181 0.624982 20.7547C0.646809 20.6356 0.672432 20.5145 0.700903 20.3915C0.754996 20.159 0.810038 19.9274 0.86603 19.6948C0.902092 19.5469 0.938154 19.3989 0.975166 19.2519C1.73722 19.0933 2.5714 19.199 3.20059 20.0187C3.26322 20.0994 3.32586 20.1791 3.39039 20.257C3.72159 20.6567 4.08411 21.0113 4.48839 21.2842C4.77689 21.4792 5.08626 21.633 5.42126 21.7319C6.01914 21.9097 6.69863 21.9135 7.48061 21.6714C8.45903 21.3697 9.59879 20.6826 10.9445 19.4671C14.9797 15.8224 20.6509 18.4726 22.5043 20.9027C23.6659 22.4247 26.0897 22.098 27.6774 21.6339C27.9611 21.5513 28.2411 21.4581 28.5134 21.3495C28.7735 21.2457 29.0278 21.1295 29.2727 20.9949C29.3258 20.9661 29.3789 20.9363 29.4311 20.9056C29.5754 20.821 29.7158 20.7307 29.8534 20.6327C29.9797 20.5423 30.1068 20.4424 30.179 20.304C30.2055 20.255 30.2236 20.2022 30.2406 20.1484C30.2606 20.2291 30.2786 20.3108 30.2976 20.3915C32.4974 29.9168 16.0169 30.0004 15.5054 30.0004Z" fill="white"/>
<path opacity="0.15" d="M15.5054 30.0005C15.5054 30.0005 15.5016 30.0005 15.4931 30.0005C14.992 30.0005 -0.856418 29.9198 0.593665 20.9432C0.603155 20.8807 0.613594 20.8182 0.624982 20.7548C0.646809 20.6357 0.672432 20.5146 0.700903 20.3916C0.754996 20.1591 0.810038 19.9275 0.86603 19.695C0.902092 19.547 0.938154 19.399 0.975166 19.252C1.00933 19.1155 1.04349 18.9791 1.07861 18.8417C1.11182 18.712 1.14504 18.5822 1.1792 18.4535C1.18015 18.4487 1.18205 18.4448 1.183 18.44C1.24658 18.1979 1.31206 17.9557 1.38039 17.7146C1.38893 17.6819 1.39747 17.6492 1.40696 17.6165C1.43354 17.6223 1.46011 17.6281 1.48668 17.6338C1.86818 17.7232 2.24778 17.8971 2.6141 18.1844C3.20059 18.6447 3.75291 19.3952 4.21982 20.5511C4.29859 20.7452 4.37546 20.9518 4.44853 21.1699C4.46182 21.2084 4.47415 21.2458 4.48839 21.2843C4.905 22.4748 5.59873 23.723 6.77739 24.2371C6.89317 24.288 7.01465 24.3313 7.13991 24.3668C8.67066 24.8002 10.4102 23.9546 11.5983 23.0254C11.9808 22.7266 12.3348 22.3893 12.7362 22.1183C15.4172 20.307 18.7387 23.0417 20.3501 25.0394C20.4251 25.1326 20.4991 25.2268 20.5722 25.321C20.8474 25.6775 21.1302 25.959 21.4187 26.1714C23.9592 28.0538 26.903 24.6676 28.839 21.683C28.9908 21.4505 29.135 21.2199 29.2727 20.995C29.4862 20.6482 29.6826 20.3138 29.861 20.0005C29.937 19.867 30.0091 19.7372 30.0784 19.6133C30.0859 19.5989 30.0945 19.5845 30.1021 19.57C30.1343 19.7026 30.1666 19.8352 30.1979 19.9679C30.2122 20.0284 30.2274 20.088 30.2406 20.1485C30.2606 20.2292 30.2786 20.3109 30.2976 20.3916C32.4974 29.9169 16.0169 30.0005 15.5054 30.0005Z" fill="white"/>
<path opacity="0.15" d="M15.5054 30.0004C15.5054 30.0004 15.5016 30.0004 15.4931 30.0004C14.992 30.0004 -0.856418 29.9197 0.593665 20.943C1.29688 20.526 2.34458 20.0754 3.39039 20.257C3.6694 20.306 3.9484 20.3992 4.21982 20.551C4.64497 20.7874 5.054 21.165 5.42126 21.7319C5.63004 22.0538 5.82554 22.4372 6.003 22.8898C6.1947 23.3818 6.45188 23.8468 6.77739 24.237C7.2946 24.8577 7.98453 25.2882 8.86046 25.3372C10.2565 25.415 11.531 24.6722 12.6385 23.9083C15.1571 22.172 17.3028 25.318 19.8585 25.9646C20.4013 26.1021 20.9214 26.1664 21.4187 26.1712C24.2676 26.201 26.3592 24.2639 27.5692 22.7236C27.9943 22.1826 28.3113 21.6906 28.5134 21.3495C28.689 21.0535 28.7792 20.8719 28.7792 20.8719C28.7792 20.8719 29.1958 20.1638 29.861 20.0004C29.8829 19.9937 29.9056 19.9889 29.9284 19.985C30.0148 19.9687 30.1049 19.9629 30.1979 19.9677C30.2122 20.0283 30.2274 20.0878 30.2406 20.1484C30.2606 20.2291 30.2786 20.3108 30.2976 20.3915C32.4974 29.9168 16.0169 30.0004 15.5054 30.0004Z" fill="white"/>
<path opacity="0.15" d="M15.5054 30.0005C15.5054 30.0005 15.5016 30.0005 15.4931 30.0005C14.992 30.0005 -0.856418 29.9198 0.593665 20.9431C0.603155 20.8807 0.613594 20.8182 0.624982 20.7548C0.646809 20.6356 0.672432 20.5146 0.700903 20.3916C0.754996 20.159 0.810038 19.9275 0.86603 19.6949C0.902092 19.547 0.938154 19.399 0.975166 19.252C1.00933 19.1155 1.04349 18.9791 1.07861 18.8417C1.11182 18.7119 1.14504 18.5822 1.1792 18.4535C1.18015 18.4487 1.18205 18.4448 1.183 18.44C1.64991 18.3064 2.1358 18.2104 2.6141 18.1844C3.92373 18.1123 5.17357 18.5649 5.8132 20.1994C6.13586 21.0248 6.72045 21.4514 7.48061 21.6715C7.89343 21.7916 8.35749 21.8502 8.86046 21.8781C10.2565 21.9559 11.3886 20.9383 12.6385 20.4492C18.435 18.1815 19.9591 21.8444 22.4208 22.7938C24.7203 23.6807 26.3877 23.402 27.5692 22.7237C28.0797 22.4306 28.4992 22.0635 28.839 21.683C29.0724 21.4236 29.2679 21.1574 29.4311 20.9057C29.657 20.5549 29.8202 20.2311 29.9284 19.9851C30.0015 19.8208 30.0508 19.692 30.0784 19.6133C30.0869 19.5892 30.0935 19.57 30.0983 19.5556C30.1002 19.5604 30.1011 19.5652 30.1021 19.57C30.1343 19.7026 30.1666 19.8352 30.1979 19.9678C30.2122 20.0284 30.2274 20.0879 30.2406 20.1485C30.2606 20.2292 30.2786 20.3109 30.2976 20.3916C32.4974 29.9169 16.0169 30.0005 15.5054 30.0005Z" fill="white"/>
<defs>
<radialGradient id="paint0_radial_1_4" cx="0" cy="0" r="1" gradientUnits="userSpaceOnUse" gradientTransform="translate(15.4998 15.0002) scale(14.9075 15.0942)">
<stop offset="2.23767e-07" stop-color="#8485E0"/>
<stop offset="1" stop-color="#7680FC"/>
</radialGradient>
</defs>
</svg>
